PathFileType	4	(X/Y/Z)	output_15markers.trc
DataRate	CameraRate	NumFrames	NumMarkers	Units	OrigDataRate	OrigDataStartFrame	OrigNumFrames
30	30	13	15	m	30	273	1089
Frame#	Time	Hip			RHip			RKnee			RAnkle			LHip			LKnee			LAnkle			Neck			Head			RShoulder			RElbow			RWrist			LShoulder			LElbow			LWrist
		X1	Y1	Z1	X2	Y2	Z2	X3	Y3	Z3	X4	Y4	Z4	X5	Y5	Z5	X6	Y6	Z6	X7	Y7	Z7	X8	Y8	Z8	X9	Y9	Z9	X10	Y10	Z10	X11	Y11	Z11	X12	Y12	Z12	X13	Y13	Z13	X14	Y14	Z14	X15	Y15	Z15

273	9.066667	-0.000056	0.815601	-0.000186	-0.089915	0.801730	-0.056179	-0.081604	0.432060	0.009265	0.018048	0.000000	0.049563	0.089926	0.829484	0.056157	0.072526	0.452386	0.193912	0.190073	0.104351	0.033584	-0.063249	1.428842	0.108995	-0.021141	1.469673	0.073988	-0.124044	1.249195	-0.097480	-0.088983	1.015101	-0.162792	-0.073594	0.730303	-0.106764	0.083339	1.276557	0.017999	0.168637	1.030113	-0.034219	0.182206	0.792227	0.038461
274	9.100000	-0.000059	0.797476	-0.000185	-0.087668	0.781378	-0.053675	-0.076703	0.428119	-0.001056	0.043007	0.000000	0.030763	0.087679	0.813582	0.053654	0.056082	0.449829	0.201970	0.151506	0.067378	0.094208	-0.061632	1.410163	0.109444	-0.018950	1.455593	0.072191	-0.126595	1.236064	-0.094614	-0.105138	1.001196	-0.154394	-0.094129	0.721807	-0.091152	0.085941	1.256073	0.015134	0.168869	1.007416	-0.023112	0.184374	0.770468	0.036547
275	9.133333	-0.000058	0.805393	-0.000191	-0.083920	0.786076	-0.053099	-0.054808	0.421298	-0.023627	0.070891	0.000000	-0.008831	0.083932	0.824700	0.053076	0.060113	0.445319	0.209396	0.124419	0.046123	0.169644	-0.054043	1.410797	0.111469	-0.016057	1.456426	0.076955	-0.126981	1.242308	-0.089983	-0.115590	0.999596	-0.140943	-0.112019	0.724258	-0.067211	0.083644	1.262280	0.007900	0.161588	1.013242	-0.033897	0.170447	0.780179	0.031400
276	9.166667	-0.000056	0.814570	-0.000195	-0.076854	0.794408	-0.048351	-0.029825	0.425239	-0.038668	0.093468	0.000000	-0.044599	0.076863	0.834709	0.048332	0.059904	0.442663	0.190459	0.093152	0.029737	0.243005	-0.045225	1.416105	0.114081	-0.013179	1.461370	0.084332	-0.129584	1.247526	-0.083441	-0.129051	1.004124	-0.137588	-0.128465	0.740196	-0.049096	0.076544	1.270235	0.001022	0.143429	1.018355	-0.040307	0.142279	0.787892	0.021272
277	9.200000	-0.000053	0.818889	-0.000204	-0.069329	0.800076	-0.044293	-0.018591	0.423598	-0.058022	0.100957	0.000000	-0.085833	0.069338	0.837677	0.044276	0.059648	0.440150	0.176392	0.083203	0.024818	0.308377	-0.038799	1.420108	0.113692	-0.008751	1.463269	0.088702	-0.130816	1.253203	-0.086725	-0.139239	1.013892	-0.143973	-0.136960	0.761953	-0.039687	0.075043	1.278969	-0.008478	0.140105	1.032686	-0.049002	0.129847	0.801088	0.032005
278	9.233333	-0.000051	0.815781	-0.000211	-0.066184	0.798789	-0.039993	-0.010666	0.419003	-0.074286	0.111339	0.000000	-0.127343	0.066193	0.832746	0.039976	0.061879	0.433688	0.167101	0.089314	0.024993	0.349203	-0.045251	1.418753	0.112784	-0.018761	1.466971	0.090742	-0.139495	1.253407	-0.088301	-0.151462	1.008463	-0.146242	-0.152223	0.770187	-0.027286	0.069576	1.282142	-0.013629	0.135382	1.038886	-0.045526	0.115348	0.802775	0.053701
279	9.266667	-0.000049	0.809142	-0.000220	-0.068288	0.791852	-0.037272	-0.009238	0.410593	-0.084790	0.127889	0.000000	-0.158716	0.068298	0.826407	0.037254	0.072035	0.430312	0.174588	0.107656	0.025784	0.376529	-0.047120	1.419933	0.116343	-0.015885	1.466022	0.092672	-0.144112	1.249851	-0.083912	-0.158468	1.004962	-0.141411	-0.158424	0.770245	-0.013301	0.069902	1.281567	-0.013316	0.133840	1.028902	-0.047151	0.116605	0.809075	0.038269
280	9.300000	-0.000051	0.802806	-0.000222	-0.069054	0.783745	-0.041888	-0.019079	0.410965	-0.095942	0.125845	0.000000	-0.192498	0.069067	0.821839	0.041864	0.065039	0.431147	0.178256	0.099980	0.014545	0.370998	-0.041408	1.414743	0.110572	-0.005924	1.461341	0.083904	-0.136708	1.244440	-0.091248	-0.154614	0.997584	-0.144186	-0.159564	0.769689	-0.013367	0.080123	1.273343	-0.018216	0.139803	1.019799	-0.053129	0.118955	0.803146	0.030977
281	9.333333	-0.000049	0.797737	-0.000227	-0.069209	0.778105	-0.042100	-0.007622	0.404197	-0.109477	0.151222	0.004611	-0.225736	0.069223	0.817338	0.042074	0.062893	0.419998	0.178945	0.106537	0.000000	0.368134	-0.042102	1.411568	0.108236	-0.008720	1.458160	0.088260	-0.135954	1.240662	-0.092903	-0.148849	0.991829	-0.142909	-0.153537	0.766765	-0.000434	0.080474	1.269987	-0.019762	0.139402	1.015858	-0.057001	0.123571	0.803091	0.033175
282	9.366667	-0.000049	0.806918	-0.000235	-0.073945	0.787445	-0.045500	-0.009256	0.414806	-0.111158	0.160151	0.023323	-0.251738	0.073961	0.826357	0.045471	0.062047	0.427739	0.183916	0.105699	0.000000	0.363289	-0.041264	1.422874	0.106363	-0.009224	1.469347	0.082659	-0.137289	1.249523	-0.096343	-0.153200	0.996688	-0.140150	-0.161156	0.770359	0.002154	0.086499	1.278596	-0.021306	0.145473	1.028963	-0.055091	0.124833	0.804654	0.043498
283	9.400000	-0.000050	0.819327	-0.000235	-0.080710	0.797839	-0.047848	-0.013566	0.421819	-0.103995	0.168050	0.042572	-0.277174	0.080726	0.840778	0.047818	0.062966	0.436211	0.180636	0.106062	0.000000	0.345228	-0.034509	1.432218	0.101232	-0.005254	1.479398	0.075993	-0.136161	1.262921	-0.102577	-0.152710	1.006487	-0.150571	-0.162134	0.780029	-0.012871	0.094606	1.291395	-0.021663	0.153667	1.039386	-0.053357	0.135271	0.814940	0.037694
284	9.433333	-0.000049	0.823199	-0.000240	-0.084369	0.800653	-0.048018	-0.018525	0.422470	-0.089804	0.178330	0.062345	-0.295686	0.084386	0.845707	0.047987	0.069584	0.437589	0.175638	0.119335	0.000000	0.328750	-0.033352	1.440983	0.100673	-0.000155	1.486258	0.078400	-0.134308	1.267683	-0.103806	-0.151906	1.009389	-0.153055	-0.166162	0.784065	-0.018074	0.096569	1.296528	-0.016292	0.153018	1.042114	-0.046389	0.135977	0.816438	0.055172
285	9.466667	-0.000050	0.823611	-0.000246	-0.087215	0.798131	-0.046958	-0.023084	0.422442	-0.054971	0.190515	0.089554	-0.293325	0.087234	0.849045	0.046924	0.073814	0.440496	0.170582	0.124194	0.000000	0.308504	-0.029434	1.445445	0.104081	0.004084	1.487104	0.083896	-0.132450	1.269351	-0.102950	-0.149525	1.008747	-0.157598	-0.165936	0.780644	-0.021736	0.098069	1.295715	-0.013671	0.149652	1.038739	-0.039307	0.136103	0.807676	0.062088
